<?xml version="1.0" standalone="no"?>
<!DOCTYPE svg PUBLIC "-//W3C//DTD SVG 20010904//EN"
 "http://www.w3.org/TR/2001/REC-SVG-20010904/DTD/svg10.dtd">
<svg version="1.0" xmlns="http://www.w3.org/2000/svg"
 width="742.000000pt" height="274.000000pt" viewBox="0 0 742.000000 274.000000"
 preserveAspectRatio="xMidYMid meet">

<g transform="translate(0.000000,274.000000) scale(0.100000,-0.100000)"
fill="#000000" stroke="none">
<path d="M0 1370 l0 -1370 3710 0 3710 0 0 1370 0 1370 -3710 0 -3710 0 0
-1370z m3398 324 c49 -56 0 -134 -84 -134 -67 0 -101 38 -94 105 7 73 124 91
178 29z m-2111 -236 c264 -320 283 -346 283 -390 l0 -39 -72 3 -73 3 -217 263
c-202 244 -218 267 -218 303 l0 39 73 0 72 0 152 -182z m283 32 c0 -82 -2
-150 -4 -150 -3 0 -41 44 -85 97 -79 95 -81 99 -81 150 l0 53 85 0 85 0 0
-150z m633 4 c26 -9 47 -19 47 -24 0 -4 -9 -30 -21 -58 l-21 -50 -35 14 c-22
10 -59 14 -101 12 -61 -3 -67 -5 -70 -25 -2 -13 -1 -23 1 -23 26 0 177 -35
198 -46 51 -26 71 -63 67 -122 -6 -65 -39 -104 -110 -128 -62 -20 -182 -20
-251 0 -80 24 -81 25 -56 82 12 27 23 51 25 53 1 2 24 -4 50 -13 81 -27 194
-19 194 15 0 10 -54 26 -115 34 -106 14 -165 64 -165 142 0 96 86 153 231 153
52 0 104 -6 132 -16z m688 -11 c32 -17 63 -42 77 -63 l23 -34 -63 -32 -63 -32
-33 29 c-44 39 -90 39 -133 1 -26 -23 -31 -35 -31 -75 -1 -56 15 -90 49 -106
41 -19 80 -13 115 18 l33 29 62 -32 63 -31 -20 -32 c-81 -134 -336 -125 -435
16 -26 37 -30 53 -33 119 -3 66 0 84 20 121 47 87 126 130 244 131 58 0 80 -5
125 -27z m509 -213 l0 -240 -85 0 -85 0 0 233 c0 129 3 237 7 240 3 4 42 7 85
7 l78 0 0 -240z m630 219 c85 -39 129 -102 137 -201 l6 -58 -172 0 c-158 0
-172 -1 -169 -17 5 -27 67 -63 107 -63 20 0 55 9 76 20 l40 21 38 -42 c21 -23
36 -47 34 -53 -1 -6 -27 -23 -57 -38 -46 -24 -66 -28 -136 -28 -73 0 -89 4
-145 33 -49 25 -70 43 -93 80 -74 120 -30 278 95 341 68 34 171 36 239 5z
m787 10 c40 -15 73 -48 94 -94 16 -34 19 -66 19 -207 l0 -168 -79 0 -80 0 -3
149 c-3 171 -12 191 -77 191 -81 0 -101 -44 -101 -222 l0 -118 -80 0 -80 0 0
235 0 235 80 0 c71 0 80 -2 80 -19 0 -17 3 -17 47 5 51 26 131 32 180 13z
m738 0 c39 -11 125 -85 125 -108 0 -6 -26 -24 -58 -40 l-57 -29 -33 29 c-53
48 -127 38 -157 -21 -28 -54 -11 -136 34 -160 11 -5 37 -10 58 -10 30 0 46 7
68 30 l28 29 59 -31 c32 -17 58 -34 58 -37 0 -24 -46 -72 -91 -95 -103 -51
-246 -29 -325 49 -52 52 -67 98 -62 185 5 93 38 142 127 188 70 35 148 42 226
21z m700 -5 c90 -31 155 -127 155 -231 l0 -33 -177 -2 -177 -3 30 -34 c39 -43
108 -53 166 -23 l37 19 43 -44 43 -44 -25 -19 c-77 -59 -233 -67 -327 -15
-179 97 -158 359 35 430 51 19 139 18 197 -1z m-5095 -410 l0 -54 -85 0 -85 0
0 162 0 161 85 -108 c83 -105 85 -109 85 -161z"/>
<path d="M3875 1386 c-30 -13 -60 -58 -48 -70 4 -3 46 -6 95 -6 79 0 88 2 88
18 0 25 -40 61 -75 67 -17 3 -44 -1 -60 -9z"/>
<path d="M6108 1385 c-27 -15 -48 -43 -48 -64 0 -7 34 -11 95 -11 85 0 95 2
95 18 0 50 -91 86 -142 57z"/>
</g>
</svg>
